<mxfile host="65bd71144e">
    <diagram id="z__zmrcmEBkHby5Mq3uI" name="Page-1">
        <mxGraphModel dx="699" dy="761" grid="1" gridSize="10" guides="1" tooltips="1" connect="1" arrows="1" fold="1" page="1" pageScale="1" pageWidth="850" pageHeight="1100" math="0" shadow="0">
            <root>
                <mxCell id="0"/>
                <mxCell id="1" parent="0"/>
                <mxCell id="28" value="&lt;div style=&quot;&quot;&gt;&lt;span style=&quot;background-color: initial;&quot;&gt;&lt;font style=&quot;font-size: 18px;&quot;&gt;whaler-auth&lt;/font&gt;&lt;/span&gt;&lt;/div&gt;" style="whiteSpace=wrap;html=1;verticalAlign=top;align=center;labelBorderColor=none;fontFamily=Times New Roman;fontSize=18;fontStyle=0" parent="1" vertex="1">
                    <mxGeometry x="141" y="200" width="570" height="660" as="geometry"/>
                </mxCell>
                <mxCell id="25" value="user" style="shape=umlActor;verticalLabelPosition=bottom;verticalAlign=top;html=1;outlineConnect=0;fontFamily=Comic Sans MS;" parent="1" vertex="1">
                    <mxGeometry x="31" y="505" width="50" height="90" as="geometry"/>
                </mxCell>
                <mxCell id="37" value="admin" style="shape=umlActor;verticalLabelPosition=bottom;verticalAlign=top;html=1;outlineConnect=0;fontFamily=Comic Sans MS;" parent="1" vertex="1">
                    <mxGeometry x="750" y="460" width="50" height="90" as="geometry"/>
                </mxCell>
                <mxCell id="42" value="&lt;font style=&quot;font-size: 16px;&quot;&gt;Register&lt;/font&gt;" style="ellipse;whiteSpace=wrap;html=1;fontFamily=Comic Sans MS;fontSize=16;" parent="1" vertex="1">
                    <mxGeometry x="260" y="290" width="110" height="60" as="geometry"/>
                </mxCell>
                <mxCell id="53" value="" style="endArrow=classic;html=1;labelBorderColor=none;fontFamily=Comic Sans MS;fontSize=18;" parent="1" target="42" edge="1">
                    <mxGeometry width="50" height="50" relative="1" as="geometry">
                        <mxPoint x="80" y="550" as="sourcePoint"/>
                        <mxPoint x="470" y="480" as="targetPoint"/>
                    </mxGeometry>
                </mxCell>
                <mxCell id="54" value="" style="endArrow=classic;html=1;labelBorderColor=none;fontFamily=Comic Sans MS;fontSize=18;entryX=0;entryY=0.5;entryDx=0;entryDy=0;" parent="1" target="56" edge="1">
                    <mxGeometry width="50" height="50" relative="1" as="geometry">
                        <mxPoint x="80" y="550" as="sourcePoint"/>
                        <mxPoint x="80" y="700" as="targetPoint"/>
                    </mxGeometry>
                </mxCell>
                <mxCell id="56" value="Login" style="ellipse;whiteSpace=wrap;html=1;labelBorderColor=none;fontFamily=Comic Sans MS;fontSize=17;" parent="1" vertex="1">
                    <mxGeometry x="260" y="540" width="110" height="60" as="geometry"/>
                </mxCell>
                <mxCell id="61" value="" style="endArrow=classic;html=1;labelBorderColor=none;fontFamily=Comic Sans MS;fontSize=18;targetPerimeterSpacing=0;entryX=1;entryY=0.5;entryDx=0;entryDy=0;" parent="1" source="37" target="56" edge="1">
                    <mxGeometry width="50" height="50" relative="1" as="geometry">
                        <mxPoint x="750" y="550" as="sourcePoint"/>
                        <mxPoint x="470" y="480" as="targetPoint"/>
                    </mxGeometry>
                </mxCell>
                <mxCell id="67" value="Logout" style="ellipse;whiteSpace=wrap;html=1;labelBorderColor=none;fontFamily=Comic Sans MS;fontSize=16;" parent="1" vertex="1">
                    <mxGeometry x="260" y="658" width="100" height="60" as="geometry"/>
                </mxCell>
                <mxCell id="74" value="" style="endArrow=classic;html=1;labelBorderColor=none;fontFamily=Comic Sans MS;fontSize=18;targetPerimeterSpacing=0;entryX=0.029;entryY=0.353;entryDx=0;entryDy=0;entryPerimeter=0;" parent="1" target="67" edge="1">
                    <mxGeometry width="50" height="50" relative="1" as="geometry">
                        <mxPoint x="80" y="550" as="sourcePoint"/>
                        <mxPoint x="470" y="490" as="targetPoint"/>
                    </mxGeometry>
                </mxCell>
                <mxCell id="75" value="" style="endArrow=classic;html=1;" parent="1" target="67" edge="1">
                    <mxGeometry width="50" height="50" relative="1" as="geometry">
                        <mxPoint x="750" y="510" as="sourcePoint"/>
                        <mxPoint x="420" y="420" as="targetPoint"/>
                    </mxGeometry>
                </mxCell>
                <mxCell id="76" value="&lt;font face=&quot;Comic Sans MS&quot; style=&quot;font-size: 16px;&quot;&gt;Verify OTP&lt;br style=&quot;font-size: 16px;&quot;&gt;&lt;/font&gt;" style="ellipse;whiteSpace=wrap;html=1;fontSize=16;" parent="1" vertex="1">
                    <mxGeometry x="380" y="420" width="120" height="60" as="geometry"/>
                </mxCell>
                <mxCell id="83" value="" style="endArrow=classic;html=1;dashed=1;dashPattern=8 8;fontFamily=Comic Sans MS;fontSize=18;exitX=0.965;exitY=0.787;exitDx=0;exitDy=0;exitPerimeter=0;" parent="1" source="42" target="76" edge="1">
                    <mxGeometry relative="1" as="geometry">
                        <mxPoint x="300" y="440" as="sourcePoint"/>
                        <mxPoint x="400" y="440" as="targetPoint"/>
                    </mxGeometry>
                </mxCell>
                <mxCell id="85" value="" style="endArrow=classic;html=1;dashed=1;dashPattern=8 8;fontFamily=Comic Sans MS;fontSize=18;exitX=1;exitY=0;exitDx=0;exitDy=0;" parent="1" source="56" target="76" edge="1">
                    <mxGeometry relative="1" as="geometry">
                        <mxPoint x="300" y="440" as="sourcePoint"/>
                        <mxPoint x="400" y="440" as="targetPoint"/>
                    </mxGeometry>
                </mxCell>
                <mxCell id="93" value="&lt;&lt;include&gt;&gt;" style="text;align=center;fontStyle=1;verticalAlign=middle;spacingLeft=3;spacingRight=3;strokeColor=none;rotatable=0;points=[[0,0.5],[1,0.5]];portConstraint=eastwest;labelBackgroundColor=default;labelBorderColor=none;fontFamily=Comic Sans MS;fontSize=13;fontColor=default;" parent="1" vertex="1">
                    <mxGeometry x="387" y="374" width="10" height="10" as="geometry"/>
                </mxCell>
                <mxCell id="96" value="&lt;&lt;include&gt;&gt;" style="text;align=center;fontStyle=1;verticalAlign=middle;spacingLeft=3;spacingRight=3;strokeColor=none;rotatable=0;points=[[0,0.5],[1,0.5]];portConstraint=eastwest;labelBackgroundColor=default;labelBorderColor=none;fontFamily=Comic Sans MS;fontSize=13;fontColor=default;" parent="1" vertex="1">
                    <mxGeometry x="384" y="509" width="10" as="geometry"/>
                </mxCell>
                <mxCell id="98" value="&lt;font style=&quot;font-size: 14px;&quot;&gt;Notify successful Verification&lt;br style=&quot;font-size: 14px;&quot;&gt;&lt;/font&gt;" style="ellipse;whiteSpace=wrap;html=1;labelBackgroundColor=default;labelBorderColor=none;fontFamily=Comic Sans MS;fontSize=14;fontColor=default;" parent="1" vertex="1">
                    <mxGeometry x="395" y="250" width="245" height="85" as="geometry"/>
                </mxCell>
                <mxCell id="99" value="" style="endArrow=classic;html=1;dashed=1;dashPattern=8 8;fontFamily=Comic Sans MS;fontSize=18;fontColor=default;entryX=1;entryY=0;entryDx=0;entryDy=0;exitX=0.5;exitY=1;exitDx=0;exitDy=0;" parent="1" source="98" target="76" edge="1">
                    <mxGeometry width="50" height="50" relative="1" as="geometry">
                        <mxPoint x="440" y="520" as="sourcePoint"/>
                        <mxPoint x="490" y="470" as="targetPoint"/>
                    </mxGeometry>
                </mxCell>
                <mxCell id="103" value="&lt;&lt;extend&gt;&gt;" style="text;align=center;fontStyle=1;verticalAlign=middle;spacingLeft=3;spacingRight=3;strokeColor=none;rotatable=0;points=[[0,0.5],[1,0.5]];portConstraint=eastwest;labelBackgroundColor=default;labelBorderColor=none;fontFamily=Comic Sans MS;fontSize=13;fontColor=default;" parent="1" vertex="1">
                    <mxGeometry x="503" y="377" as="geometry"/>
                </mxCell>
                <mxCell id="106" value="Refresh&lt;br&gt;JWT" style="ellipse;whiteSpace=wrap;html=1;labelBackgroundColor=default;labelBorderColor=none;fontFamily=Comic Sans MS;fontSize=16;fontColor=default;" parent="1" vertex="1">
                    <mxGeometry x="210" y="435" width="140" height="70" as="geometry"/>
                </mxCell>
                <mxCell id="107" value="" style="endArrow=classic;html=1;fontFamily=Comic Sans MS;fontSize=16;fontColor=default;" parent="1" target="106" edge="1">
                    <mxGeometry width="50" height="50" relative="1" as="geometry">
                        <mxPoint x="80" y="550" as="sourcePoint"/>
                        <mxPoint x="490" y="480" as="targetPoint"/>
                    </mxGeometry>
                </mxCell>
                <mxCell id="108" value="Add Admin" style="ellipse;whiteSpace=wrap;html=1;labelBackgroundColor=default;labelBorderColor=none;fontFamily=Comic Sans MS;fontSize=16;fontColor=default;" parent="1" vertex="1">
                    <mxGeometry x="418" y="715" width="127" height="60" as="geometry"/>
                </mxCell>
                <mxCell id="110" value="&lt;font style=&quot;font-size: 12px;&quot;&gt;master&lt;/font&gt;" style="shape=umlActor;verticalLabelPosition=bottom;verticalAlign=top;html=1;labelBackgroundColor=default;labelBorderColor=none;fontFamily=Comic Sans MS;fontSize=16;fontColor=default;" parent="1" vertex="1">
                    <mxGeometry x="740" y="670" width="50" height="90" as="geometry"/>
                </mxCell>
                <mxCell id="116" value="" style="endArrow=classic;html=1;fontFamily=Comic Sans MS;fontSize=12;fontColor=default;" parent="1" target="56" edge="1">
                    <mxGeometry width="50" height="50" relative="1" as="geometry">
                        <mxPoint x="740" y="710" as="sourcePoint"/>
                        <mxPoint x="470" y="480" as="targetPoint"/>
                    </mxGeometry>
                </mxCell>
                <mxCell id="117" value="" style="endArrow=classic;html=1;fontFamily=Comic Sans MS;fontSize=12;fontColor=default;" parent="1" target="67" edge="1">
                    <mxGeometry width="50" height="50" relative="1" as="geometry">
                        <mxPoint x="740" y="710" as="sourcePoint"/>
                        <mxPoint x="470" y="480" as="targetPoint"/>
                    </mxGeometry>
                </mxCell>
                <mxCell id="118" value="" style="endArrow=classic;html=1;fontFamily=Comic Sans MS;fontSize=12;fontColor=default;" parent="1" target="108" edge="1">
                    <mxGeometry width="50" height="50" relative="1" as="geometry">
                        <mxPoint x="740" y="710" as="sourcePoint"/>
                        <mxPoint x="470" y="480" as="targetPoint"/>
                    </mxGeometry>
                </mxCell>
                <mxCell id="119" value="&lt;font style=&quot;font-size: 15px;&quot;&gt;Delete Admin&lt;/font&gt;" style="ellipse;whiteSpace=wrap;html=1;labelBackgroundColor=default;labelBorderColor=none;fontFamily=Comic Sans MS;fontSize=12;fontColor=default;" parent="1" vertex="1">
                    <mxGeometry x="503" y="776" width="130" height="60" as="geometry"/>
                </mxCell>
                <mxCell id="120" value="" style="endArrow=classic;html=1;fontFamily=Comic Sans MS;fontSize=15;fontColor=default;" parent="1" target="119" edge="1">
                    <mxGeometry width="50" height="50" relative="1" as="geometry">
                        <mxPoint x="740" y="710" as="sourcePoint"/>
                        <mxPoint x="470" y="480" as="targetPoint"/>
                    </mxGeometry>
                </mxCell>
                <mxCell id="121" value="Delete User" style="ellipse;whiteSpace=wrap;html=1;labelBackgroundColor=default;labelBorderColor=none;fontFamily=Comic Sans MS;fontSize=15;fontColor=default;" parent="1" vertex="1">
                    <mxGeometry x="532" y="590" width="120" height="60" as="geometry"/>
                </mxCell>
                <mxCell id="123" value="" style="endArrow=classic;html=1;fontFamily=Comic Sans MS;fontSize=15;fontColor=default;entryX=1;entryY=1;entryDx=0;entryDy=0;" parent="1" target="121" edge="1">
                    <mxGeometry width="50" height="50" relative="1" as="geometry">
                        <mxPoint x="740" y="710" as="sourcePoint"/>
                        <mxPoint x="470" y="480" as="targetPoint"/>
                    </mxGeometry>
                </mxCell>
                <mxCell id="124" value="" style="endArrow=classic;html=1;fontFamily=Comic Sans MS;fontSize=15;fontColor=default;entryX=0.768;entryY=0.09;entryDx=0;entryDy=0;entryPerimeter=0;" parent="1" target="121" edge="1">
                    <mxGeometry width="50" height="50" relative="1" as="geometry">
                        <mxPoint x="750" y="510" as="sourcePoint"/>
                        <mxPoint x="470" y="480" as="targetPoint"/>
                    </mxGeometry>
                </mxCell>
                <mxCell id="127" value="Watch Online Users" style="ellipse;whiteSpace=wrap;html=1;labelBackgroundColor=default;labelBorderColor=none;fontFamily=Comic Sans MS;fontSize=15;fontColor=default;" parent="1" vertex="1">
                    <mxGeometry x="505" y="440" width="170" height="65" as="geometry"/>
                </mxCell>
                <mxCell id="128" value="" style="endArrow=classic;html=1;fontFamily=Comic Sans MS;fontSize=15;fontColor=default;" parent="1" target="127" edge="1">
                    <mxGeometry width="50" height="50" relative="1" as="geometry">
                        <mxPoint x="750" y="510" as="sourcePoint"/>
                        <mxPoint x="470" y="460" as="targetPoint"/>
                    </mxGeometry>
                </mxCell>
                <mxCell id="129" value="" style="endArrow=classic;html=1;fontFamily=Comic Sans MS;fontSize=15;fontColor=default;" parent="1" target="127" edge="1">
                    <mxGeometry width="50" height="50" relative="1" as="geometry">
                        <mxPoint x="740" y="710" as="sourcePoint"/>
                        <mxPoint x="470" y="460" as="targetPoint"/>
                    </mxGeometry>
                </mxCell>
                <mxCell id="131" value="&lt;font style=&quot;font-size: 14px;&quot; face=&quot;Comic Sans MS&quot;&gt;Forgot Password&lt;/font&gt;" style="ellipse;whiteSpace=wrap;html=1;" parent="1" vertex="1">
                    <mxGeometry x="160" y="730" width="140" height="60" as="geometry"/>
                </mxCell>
                <mxCell id="132" value="" style="endArrow=classic;html=1;fontFamily=Comic Sans MS;fontSize=14;" parent="1" target="131" edge="1">
                    <mxGeometry width="50" height="50" relative="1" as="geometry">
                        <mxPoint x="80" y="550" as="sourcePoint"/>
                        <mxPoint x="490" y="520" as="targetPoint"/>
                    </mxGeometry>
                </mxCell>
                <mxCell id="133" value="" style="endArrow=classic;html=1;fontFamily=Comic Sans MS;fontSize=14;dashed=1;dashPattern=8 8;" parent="1" source="67" target="56" edge="1">
                    <mxGeometry width="50" height="50" relative="1" as="geometry">
                        <mxPoint x="440" y="570" as="sourcePoint"/>
                        <mxPoint x="490" y="520" as="targetPoint"/>
                    </mxGeometry>
                </mxCell>
                <mxCell id="134" value="" style="endArrow=classic;html=1;dashed=1;dashPattern=8 8;fontFamily=Comic Sans MS;fontSize=14;exitX=0.5;exitY=0;exitDx=0;exitDy=0;" parent="1" source="131" target="56" edge="1">
                    <mxGeometry width="50" height="50" relative="1" as="geometry">
                        <mxPoint x="440" y="570" as="sourcePoint"/>
                        <mxPoint x="490" y="520" as="targetPoint"/>
                        <Array as="points">
                            <mxPoint x="220" y="700"/>
                            <mxPoint x="210" y="670"/>
                            <mxPoint x="220" y="640"/>
                            <mxPoint x="240" y="620"/>
                        </Array>
                    </mxGeometry>
                </mxCell>
                <mxCell id="135" value="&amp;lt;&amp;lt;include&amp;gt;&amp;gt;" style="text;html=1;strokeColor=none;fillColor=default;align=center;verticalAlign=middle;whiteSpace=wrap;rounded=0;fontFamily=Comic Sans MS;fontSize=13;fontStyle=1" parent="1" vertex="1">
                    <mxGeometry x="275" y="626" width="71" height="13" as="geometry"/>
                </mxCell>
                <mxCell id="138" value="&amp;lt;&amp;lt;include&amp;gt;&amp;gt;" style="text;html=1;strokeColor=none;fillColor=default;align=center;verticalAlign=middle;whiteSpace=wrap;rounded=0;fontFamily=Comic Sans MS;fontSize=13;fontStyle=1" parent="1" vertex="1">
                    <mxGeometry x="197" y="614" width="76" height="13" as="geometry"/>
                </mxCell>
            </root>
        </mxGraphModel>
    </diagram>
</mxfile>